<?xml version="1.0" encoding="UTF-8"?>
<svg id="Layer_5" data-name="Layer 5" xmlns="http://www.w3.org/2000/svg" xmlns:xlink="http://www.w3.org/1999/xlink" viewBox="0 0 500 500">
  <defs>
    <style>
      .cls-1 {
        fill: none;
      }

      .cls-1, .cls-2, .cls-3 {
        stroke-width: 0px;
      }

      .cls-2 {
        fill: url(#linear-gradient);
      }

      .cls-3 {
        fill: #343636;
      }
    </style>
    <linearGradient id="linear-gradient" x1="106.1" y1="118.21" x2="391.55" y2="379.64" gradientUnits="userSpaceOnUse">
      <stop offset="0" stop-color="#ffd5ad"/>
      <stop offset="1" stop-color="#ae8b00"/>
    </linearGradient>
  </defs>
  <circle class="cls-3" cx="250" cy="250" r="250"/>
  <polygon class="cls-2" points="388.96 121.32 388.96 114.82 331.21 114.82 331.21 121.32 346.81 121.32 346.81 147.71 271.93 227.51 172.3 121.32 189.09 121.32 189.09 114.82 157.19 114.82 163.3 121.32 163.38 121.32 267.48 232.26 262.2 237.89 146.76 114.86 137.85 114.86 257.74 242.64 252.46 248.26 127.3 114.86 127.29 114.86 127.33 114.82 111.04 114.82 111.04 121.32 124.45 121.32 248.01 253.01 242.48 258.9 172.58 184.4 172.58 184.32 120.53 128.84 120.53 378.68 111.04 378.68 111.04 385.18 189.09 385.18 189.09 378.68 172.58 378.68 172.58 203.43 242.47 277.92 242.48 277.93 346.81 166.73 346.81 378.68 331.21 378.68 331.21 385.18 388.96 385.18 388.96 378.68 372.83 378.68 372.83 121.32 388.96 121.32"/>
  <circle class="cls-1" cx="250" cy="250" r="250"/>
</svg>